<svg xmlns="http://www.w3.org/2000/svg" height="50" fill="none" style="color:#fafafa" viewBox="0 0 40 36"><path fill="url(#a)" d="m34.566 17.924-6.508-1.203-.744 1.289-1.833 3.173-4.758 8.238c-.208.36-.758.213-.758-.204V21.54a.815.815 0 0 0-.656-.8l-7.414-1.457-6.636-1.213c.01.345.092.688.247 1.005l5.477 9.504a4.27 4.27 0 0 0 3.7 2.14l10.504-.014a4.27 4.27 0 0 0 3.694-2.148l5.36-9.347a2.46 2.46 0 0 0 .325-1.287"/><path fill="url(#b)" d="m12.642 17.989 1.835-3.186 4.73-8.208c.208-.36.758-.213.758.205v7.671c0 .39.276.727.658.801l7.435 1.449 6.508 1.203a2.45 2.45 0 0 0-.326-1.163l-5.367-9.337a4.27 4.27 0 0 0-3.698-2.144H14.636c-1.528 0-2.94.82-3.7 2.15l-5.352 9.345-.035.065a2.45 2.45 0 0 0-.29 1.23l6.636 1.214z"/><defs><linearGradient id="a" x1="33.953" x2="5.786" y1="23.645" y2="23.906" gradientUnits="userSpaceOnUse"><stop stop-color="#3585a3"/><stop offset="1" stop-color="#00deae"/></linearGradient><linearGradient id="b" x1="6.678" x2="31.701" y1="12.454" y2="11.802" gradientUnits="userSpaceOnUse"><stop stop-color="#3585a3"/><stop offset="1" stop-color="#00deae"/></linearGradient></defs></svg>