<svg xmlns="http://www.w3.org/2000/svg" height="50" fill="none" viewBox="0 0 1024 1024"><g clip-path="url(#a)"><path fill="#262b30" d="M68.267 292.139v439.719a34.13 34.13 0 0 0 16.244 29.07l409.6 252.062a34.14 34.14 0 0 0 35.778 0l409.597-252.062a34.13 34.13 0 0 0 16.247-29.07V292.139a34.13 34.13 0 0 0-16.247-29.068L529.889 11.009a34.14 34.14 0 0 0-35.778 0l-409.6 252.062a34.13 34.13 0 0 0-16.244 29.068"/><path fill="#fffdff" d="M499 80h26v864h-26z"/><path fill="#fffdff" d="m124.464 320.667 12.206-22.957 762.867 405.624-12.206 22.956z"/><path fill="#fffdff" d="m887.331 297.71 12.206 22.957L136.671 726.29l-12.207-22.957z"/><g filter="url(#b)"><path fill="url(#c)" d="m527.255 98.672 337.844 207.705a28.13 28.13 0 0 1 11.049 12.701l26.047-12.701a30.2 30.2 0 0 0-11.566-13.003L528.324 70.477A30.2 30.2 0 0 0 512 66.004v28.5a28.15 28.15 0 0 1 15.255 4.168"/><path fill="url(#d)" d="M878.5 330.329v362.339a28.1 28.1 0 0 1-4.499 15.251l29.717 8.704a30.1 30.1 0 0 0 1.282-8.704V319.078c0-4.459-.985-8.782-2.805-12.701l-26.047 12.701a28.1 28.1 0 0 1 2.352 11.251"/><path fill="url(#e)" d="M865.099 716.623 527.255 924.328a28.15 28.15 0 0 1-15.755 4.154v32.501a30.17 30.17 0 0 0 16.824-4.461l362.305-222.896a30.2 30.2 0 0 0 13.089-17.003l-29.717-8.704a28.1 28.1 0 0 1-8.902 8.704"/><path fill="url(#f)" d="M497.745 924.328 159.898 716.623a28.1 28.1 0 0 1-8.9-8.704l-29.716 8.704a30.2 30.2 0 0 0 13.086 17.003l362.309 222.896a30.16 30.16 0 0 0 14.823 4.461v-32.501a28.14 28.14 0 0 1-13.755-4.154"/><path fill="url(#g)" d="M146.5 692.668V330.329c0-3.934.823-7.755 2.351-11.251l-26.047-12.701A30.15 30.15 0 0 0 120 319.078v388.841c0 2.989.442 5.918 1.282 8.704l29.716-8.704a28.1 28.1 0 0 1-4.498-15.251"/><path fill="url(#h)" d="M159.898 306.377 497.745 98.672A28.15 28.15 0 0 1 512 94.504v-28.5a30.17 30.17 0 0 0-15.323 4.473L134.368 293.374a30.2 30.2 0 0 0-11.564 13.003l26.047 12.701a28.13 28.13 0 0 1 11.047-12.701"/></g></g><defs><linearGradient id="c" x1="512" x2="892" y1="91" y2="315.5" gradientUnits="userSpaceOnUse"><stop stop-color="#43d8fd"/><stop offset="1" stop-color="#5ad29e"/></linearGradient><linearGradient id="d" x1="886.5" x2="889" y1="305.5" y2="717.5" gradientUnits="userSpaceOnUse"><stop stop-color="#5cd0a2"/><stop offset="1" stop-color="#87be9c"/></linearGradient><linearGradient id="e" x1="512" x2="890" y1="945.5" y2="710" gradientUnits="userSpaceOnUse"><stop stop-color="#d09bfe"/><stop offset="1" stop-color="#87be9c"/></linearGradient><linearGradient id="f" x1="129.5" x2="512" y1="728.5" y2="950" gradientUnits="userSpaceOnUse"><stop stop-color="#407ee3"/><stop offset="1" stop-color="#d09bfb"/></linearGradient><linearGradient id="g" x1="143" x2="138.5" y1="319.5" y2="717" gradientUnits="userSpaceOnUse"><stop stop-color="#1190de"/><stop offset="1" stop-color="#387de6"/></linearGradient><linearGradient id="h" x1="143" x2="512" y1="319.5" y2="89" gradientUnits="userSpaceOnUse"><stop stop-color="#1190de"/><stop offset="1" stop-color="#43d8fd"/></linearGradient><clipPath id="a"><rect width="1024" height="1024" fill="#fff" rx="90"/></clipPath><filter id="b" width="923" height="1038" x="50.5" y="17.5" color-interpolation-filters="sRGB" filterUnits="userSpaceOnUse"><feFlood flood-opacity="0" result="BackgroundImageFix"/><feColorMatrix in="SourceAlpha" result="hardAlpha" values="0 0 0 0 0 0 0 0 0 0 0 0 0 0 0 0 0 0 127 0"/><feOffset dy="25"/><feGaussianBlur stdDeviation="25"/><feComposite in2="hardAlpha" operator="out"/><feColorMatrix values="0 0 0 0 0 0 0 0 0 0 0 0 0 0 0 0 0 0 0.5 0"/><feBlend in2="BackgroundImageFix" result="effect1_dropShadow_223_250"/><feBlend in="SourceGraphic" in2="effect1_dropShadow_223_250" result="shape"/></filter></defs></svg>