<svg xmlns="http://www.w3.org/2000/svg" height="50" fill="#0052cc" viewBox="0 0 84 84"><path d="m50.869 0 9.694 5.575-38.176 21.953-9.694-5.574zm10.085 6.745L23.018 28.551l-.001 11.032 37.936-21.805zM45.699 28.276l-22.601 12.99-.002 11.034 22.601-12.992zm-8.664 17.441-13.99 8.042-.002 11.033 13.99-8.042zm-25.031-22.7 9.75 5.605-.003 11.035L12 34.053zm.093 12.64 9.632 5.537-.004 11.035-9.632-5.536zm-.005 12.564 9.636 5.539-.004 11.763-9.636-5.539zM33.565 84l-9.695-5.575 37.743-21.704 9.694 5.575zm-10.463-6.529L60.981 55.7l.001-11.033L23.103 66.44zM38.3 55.974l22.601-12.992.001-11.032-22.6 12.99zm8.664-17.442 13.99-8.042.002-11.033-13.99 8.042zm25.032 22.774-9.75-5.605.003-11.035L72 50.271zm-.092-12.711-9.633-5.537.004-11.035 9.633 5.536zm.004-12.565-9.636-5.538.004-11.551 9.636 5.538z"/></svg>