<svg xmlns="http://www.w3.org/2000/svg" height="50" style="background:#1a2b34" viewBox="0 0 290 290"><g fill="none" fill-rule="evenodd"><g transform="translate(40 240)"><rect width="60" height="10" x="150" fill="#4d616e" opacity=".5" rx="5"/><rect width="70" height="10" x="70" fill="#4d616e" opacity=".5" rx="5"/><rect width="60" height="10" fill="#ea5e5e" rx="5"/></g><g transform="translate(40 220)"><rect width="50" height="10" x="160" fill="#4d616e" opacity=".5" rx="5"/><rect width="20" height="10" x="130" fill="#4d616e" opacity=".5" rx="5"/><rect width="50" height="10" x="70" fill="#4d616e" opacity=".5" rx="5"/><rect width="20" height="10" x="40" fill="#f7b93e" rx="5"/><rect width="30" height="10" fill="#56b3b4" rx="5"/></g><g transform="translate(40 200)"><rect width="100" height="10" x="110" fill="#4d616e" opacity=".5" rx="5"/><rect width="30" height="10" x="70" fill="#4d616e" opacity=".5" rx="5"/><rect width="60" height="10" fill="#bf85bf" rx="5"/></g><g transform="translate(40 180)"><rect width="30" height="10" x="180" fill="#4d616e" opacity=".5" rx="5"/><rect width="30" height="10" x="140" fill="#4d616e" opacity=".5" rx="5"/><rect width="100" height="10" x="30" fill="#f7b93e" rx="5"/><rect width="20" height="10" fill="#bf85bf" rx="5"/></g><g transform="translate(40 160)"><rect width="40" height="10" x="170" fill="#4d616e" opacity=".5" rx="5"/><rect width="40" height="10" x="120" fill="#bf85bf" rx="5"/><rect width="50" height="10" x="60" fill="#ea5e5e" rx="5"/><rect width="50" height="10" fill="#56b3b4" rx="5"/></g><g transform="translate(40 140)"><rect width="30" height="10" x="180" fill="#4d616e" opacity=".5" rx="5"/><rect width="90" height="10" x="80" fill="#56b3b4" rx="5"/><rect width="40" height="10" x="30" fill="#f7b93e" rx="5"/><rect width="20" height="10" fill="#ea5e5e" rx="5"/></g><g transform="translate(40 120)"><rect width="20" height="10" x="190" fill="#4d616e" opacity=".5" rx="5"/><rect width="60" height="10" x="120" fill="#f7b93e" rx="5"/><rect width="40" height="10" x="70" fill="#4d616e" opacity=".5" rx="5"/><rect width="60" height="10" fill="#bf85bf" rx="5"/></g><g transform="translate(40 100)"><rect width="20" height="10" x="190" fill="#4d616e" opacity=".5" rx="5"/><rect width="60" height="10" x="120" fill="#ea5e5e" rx="5"/><rect width="40" height="10" x="70" fill="#4d616e" opacity=".5" rx="5"/><rect width="20" height="10" x="40" fill="#56b3b4" rx="5"/><rect width="30" height="10" fill="#f7b93e" rx="5"/></g><g transform="translate(40 80)"><rect width="30" height="10" x="180" fill="#4d616e" opacity=".5" rx="5"/><rect width="20" height="10" x="150" fill="#56b3b4" rx="5"/><rect width="50" height="10" x="90" fill="#bf85bf" rx="5"/><rect width="80" height="10" fill="#56b3b4" rx="5"/></g><g transform="translate(40 60)"><rect width="40" height="10" x="170" fill="#4d616e" opacity=".5" rx="5"/><rect width="110" height="10" x="50" fill="#f7b93e" rx="5"/><rect width="40" height="10" fill="#ea5e5e" rx="5"/></g><g transform="translate(40 40)"><rect width="70" height="10" x="140" fill="#4d616e" opacity=".5" rx="5"/><rect width="130" height="10" fill="#56b3b4" rx="5"/></g></g></svg>