<svg xmlns="http://www.w3.org/2000/svg" height="50" fill="none" viewBox="0 0 40 40"><path stroke="#ff0073" stroke-width="2" d="M35 3H25a2 2 0 0 0-2 2v10a2 2 0 0 0 2 2h10a2 2 0 0 0 2-2V5a2 2 0 0 0-2-2Z" data-path="animation"/><path stroke="#000" stroke-width="2" d="M35 23H25a2 2 0 0 0-2 2v10a2 2 0 0 0 2 2h10a2 2 0 0 0 2-2V25a2 2 0 0 0-2-2Zm-20 0H5a2 2 0 0 0-2 2v10a2 2 0 0 0 2 2h10a2 2 0 0 0 2-2V25a2 2 0 0 0-2-2Zm0-20H5a2 2 0 0 0-2 2v10a2 2 0 0 0 2 2h10a2 2 0 0 0 2-2V5a2 2 0 0 0-2-2Z"/><path fill="#fff" d="M17 13a3 3 0 1 0 0-6 3 3 0 0 0 0 6"/><path fill="#fff" d="M23 13a3 3 0 1 0 0-6 3 3 0 0 0 0 6m7 7a3 3 0 1 0 0-6 3 3 0 0 0 0 6m0 6a3 3 0 1 0 0-6 3 3 0 0 0 0 6m-13 7a3 3 0 1 0 0-6 3 3 0 0 0 0 6"/><path fill="#fff" d="M23 33a3 3 0 1 0 0-6 3 3 0 0 0 0 6"/><path fill="#000" d="M30 25a2 2 0 1 0 0-4 2 2 0 0 0 0 4m-13 7a2 2 0 1 0 0-4 2 2 0 0 0 0 4m6 0a2 2 0 1 0 0-4 2 2 0 0 0 0 4"/><path fill="#000" d="M22 9.5h-4v1h4zm7.5 8v4h1v-4zm-7.5 12h-4v1h4z" opacity=".35"/><path fill="#000" d="M17 12a2 2 0 1 0 0-4 2 2 0 0 0 0 4"/><path fill="#ff0073" d="M23 12a2 2 0 1 0 0-4 2 2 0 0 0 0 4m7 7a2 2 0 1 0 0-4 2 2 0 0 0 0 4"/></svg>