<svg xmlns="http://www.w3.org/2000/svg" height="50" fill="none" viewBox="0 0 420 360"><path fill="#f44250" d="M336.952 166c0 11.6-4.705 22.1-12.322 29.694-7.618 7.602-18.14 12.306-29.762 12.306s-22.144 4.696-29.753 12.298C257.497 227.9 252.784 238.4 252.784 250s-4.705 22.1-12.322 29.694C232.844 287.296 222.324 292 210.7 292s-22.144-4.704-29.753-12.306C173.329 272.1 168.616 261.6 168.616 250s4.713-22.1 12.33-29.702c7.61-7.602 18.13-12.298 29.754-12.298s22.145-4.704 29.762-12.306c7.617-7.594 12.322-18.094 12.322-29.694 0-23.2-18.837-42-42.084-42-11.623 0-22.144-4.704-29.753-12.306C173.329 104.1 168.616 93.6 168.616 82s4.713-22.1 12.33-29.702A41.96 41.96 0 0 1 210.7 40c23.247 0 42.084 18.8 42.084 42 0 11.6 4.713 22.1 12.33 29.694 7.61 7.602 18.13 12.306 29.754 12.306 23.247 0 42.084 18.8 42.084 42"/><path fill="#fafafa" d="M168.616 166c0-23.197-18.841-42-42.084-42s-42.084 18.803-42.084 42 18.842 42 42.084 42 42.084-18.804 42.084-42m-84.168 84c0-23.196-18.842-42-42.084-42S.28 226.804.28 250s18.842 42 42.084 42 42.084-18.803 42.084-42m336.672 0c0-23.196-18.842-42-42.084-42s-42.084 18.804-42.084 42 18.842 42 42.084 42 42.084-18.803 42.084-42"/></svg>