<svg xmlns="http://www.w3.org/2000/svg" viewBox="0 0 90.688 104.58"><g fill-rule="evenodd"><path fill="#52b0e7" d="m45.343 15.178 32.374 18.42 12.97-7.49L45.461-.001.008 26.108l12.97 7.49 32.363-18.42"/><path fill="#3c76c3" d="m.237 26.249 13.087 7.555v37.384l32.02 18.492v14.832L.001 78.47l.237-52.222"/><path fill="#2e9d4d" d="m32.799 45.038 12.606 7.277v14.83l-6.537-3.777-6.067-3.503z"/><path fill="#256f44" d="m58.244 44.9-12.839 7.412v14.83l12.603-7.28z"/><path fill="#2e3b69" d="m90.453 26.249-13.087 7.555v36.971l-15.656 9.45-16.365 9.455v14.832l.118.068 45.032-25.998-.041-52.335"/><path fill="#9fd62b" d="m45.403 52.312-12.606-7.277v-.09l12.606-7.278.155-.09 6.38 3.685 6.304 3.638z"/><path fill="#3c76c3" d="m16.769 53.942 12.606 7.278v14.83l-6.537-3.778-6.066-3.502z"/><path fill="#2e3b69" d="M41.98 53.942 29.376 61.22v14.83l12.604-7.281z"/><path fill="#52b0e7" d="M29.375 61.22 16.77 53.943l6.38-3.773 6.225-3.595 12.606 7.368z"/><path fill="#3c76c3" d="m49.21 54.323 12.605 7.278v14.83l-6.537-3.778-6.066-3.502z"/><path fill="#2e3b69" d="m74.422 54.323-12.605 7.278v14.83l12.604-7.28z"/><path fill="#52b0e7" d="M61.814 61.6 49.21 54.325v-.09l6.38-3.683 6.225-3.595 12.606 7.368z"/><path fill="#3c76c3" d="m33.308 63.675 12.605 7.278v14.83l-6.536-3.778-6.067-3.502z"/><path fill="#2e3b69" d="m58.52 63.675-12.606 7.278v14.83l12.604-7.28z"/><path fill="#52b0e7" d="M45.914 70.95 33.31 63.675v-.09l6.38-3.683 6.224-3.595 12.607 7.368z"/><path fill="#3c76c3" d="m32.799 25.208 12.606 7.278v14.83l-6.537-3.778-6.067-3.502z"/><path fill="#2e3b69" d="m58.244 25.074-12.839 7.412v14.83l12.603-7.281z"/><path fill="#52b0e7" d="m45.403 32.486-12.606-7.278v-.089l12.606-7.278.155-.09 6.38 3.684 6.304 3.639z"/><path fill="#3c76c3" d="m16.769 34.116 12.606 7.277v14.83l-6.537-3.777-6.066-3.503z"/><path fill="#2e3b69" d="m41.98 34.116-12.605 7.277v14.83l12.604-7.28z"/><path fill="#52b0e7" d="M29.375 41.394 16.77 34.117l6.38-3.773 6.225-3.596 12.606 7.369z"/><path fill="#3c76c3" d="m49.21 34.497 12.605 7.278v14.83l-6.537-3.778-6.066-3.503z"/><path fill="#2e3b69" d="m74.422 34.497-12.605 7.278v14.83l12.604-7.281z"/><path fill="#52b0e7" d="M61.814 41.775 49.21 34.497v-.088l6.38-3.685 6.225-3.595 12.606 7.368z"/><path fill="#3c76c3" d="m33.308 43.849 12.605 7.277v14.83l-6.536-3.777-6.067-3.502z"/><path fill="#2e3b69" d="m58.52 43.849-12.606 7.277v14.83l12.604-7.28z"/><path fill="#52b0e7" d="M45.914 51.123 33.31 43.846v-.088l6.38-3.685 6.224-3.595 12.607 7.368z"/></g></svg>